<svg width="165" height="49" viewBox="0 0 165 49" xmlns="http://www.w3.org/2000/svg"><g fill="#000" fill-rule="evenodd"><path d="M50.756 17.936c0-5.072 2.501-7.605 7.497-7.605 5.01 0 7.51 2.533 7.51 7.605v4.876h-5.222v-4.876c0-1.626-.757-2.445-2.269-2.458h-.037c-1.5 0-2.256.82-2.256 2.458v3.289c0 1.606 1.632 3.585 4.895 5.922 3.258 2.325 4.89 5.116 4.89 8.36v4.581c0 5.078-2.495 7.624-7.492 7.624-5.009-.013-7.516-2.558-7.516-7.624v-4.876h5.223v4.876c0 1.638.762 2.451 2.293 2.451 1.512 0 2.269-.813 2.269-2.45v-4.134c0-1.751-1.632-3.793-4.89-6.13-3.263-2.325-4.895-5.16-4.895-8.493v-3.396zM81.08 47.12h-7.157L70.23 23.713 68.53 10.904h5.28l3.673 27.911 3.692-27.91h5.28L84.752 23.75 81.08 47.12zm23.148-7.032c0 5.066-2.501 7.611-7.51 7.624-4.996 0-7.498-2.546-7.498-7.624V17.936c0-5.072 2.502-7.605 7.498-7.605 5.009 0 7.51 2.533 7.51 7.605v22.152zm-5.223-22.152c0-1.626-.756-2.445-2.268-2.458h-.038c-1.5 0-2.255.82-2.255 2.458v22.152c0 1.638.756 2.451 2.274 2.451 1.525 0 2.287-.813 2.287-2.45V17.935zm9.747-7.032h5.223V47.12h-5.223V10.904zM77.288 3.918v3.977a8.433 8.433 0 01-1.605.62c-.522.141-1.026.21-1.516.21-1.246 0-2.278-.41-3.1-1.232-.823-.823-1.233-1.86-1.233-3.113 0-1.265.416-2.311 1.25-3.137C71.918.414 72.97 0 74.248 0c.482 0 .94.066 1.377.199.436.13.856.331 1.258.597l-.21 2.047c-.38-.383-.757-.664-1.132-.841a2.732 2.732 0 00-1.187-.268c-.734 0-1.34.244-1.822.736-.481.49-.722 1.105-.722 1.84 0 .777.233 1.409.697 1.9.464.491 1.063.736 1.795.736.17 0 .341-.016.515-.045.173-.03.352-.073.54-.13V5.581H73.81V3.918h3.479zm3 4.542V4.577l-2.923-4.3h2.357l1.708 2.591 1.884-2.59h2.07l-3.154 4.22V8.46h-1.942zm4.914 0L86.9.012h.141l3.087 5.327L93.041.012h.146l1.71 8.448h-1.856l-.694-3.737-2.196 4.037h-.13l-2.358-4.093-.718 3.793h-1.743z" fill-rule="nonzero"/><path d="M13.778 45.629c-.38-1.164-.487-3.473-.583-4.673-.096-1.2-.181-1.291-.456-1.706-.274-.415-.737-1.153-1.046-1.815-.309-.661-.464-1.247-.529-2.147-.065-.9-.04-2.114.087-3.13.127-1.018.034-2.345.337-2.375.246-.024.172-.027.434-.002.26.024.853.297 1.083.267.23-.03.567-.102.6-.144.034-.043-.53-.191-.607-.21-.246-.063-.973-.258-1.143-.396-.125-.1-.228-.203-.359-.212-.13-.01-.23.158-.312.245-.083.087-.811-.046-.826-.028-.381-.074-.142-.086-.826-.294a11.047 11.047 0 01-2.591-1.178c-.914-.58-1.858-1.383-2.497-2.023-.64-.64-.974-1.116-1.387-1.535-.414-.42-.906-.782-1.335-1.227-.428-.447-.792-.976-1.09-1.386-.296-.41-.526-.7-.641-.844-.115-.145-.115-.145.002-.35l.562-.987c.213-.371.405-.703.672-1.16.267-.459.609-1.043 1.284-1.705.676-.662 1.685-1.401 2.718-2.112 1.034-.71 2.093-1.39 2.784-1.856.69-.465 1.013-.715 1.4-1.05.388-.334.84-.752 1.428-.94.589-.19 1.314-.148 1.96-.13.646.018 1.212.012 2.001.067.79.055 1.801.17 2.418.297.618.127.841.265.772.866-.069.6-.43 1.664-.707 2.419-.277.755-.47 1.201-.677 1.388-.208.186-.43.114-.6.255-.168.142-.282.498-.426.638-.143.14-.316.063-.465-.07a1.452 1.452 0 01-.368-.565c-.094-.242-.157-.536-.25-.649-.09-.112-.21-.044-.438-.077a1.712 1.712 0 01-.828-.415c-.269-.244-.472-.594-.732-.804-.26-.21-.575-.281-.86-.239-.286.043-.542.199-.869.55-.326.351-.723.897-.922 1.17-.2.273-.2.273-.245.713-.046.44-.138 1.319-.376 2.09-.238.772-.672 1.521-.813 1.766-.112.193-.305.312-.485.461-.45.373-.895.771-1.402 1.065-.077.078-.627.422-.056.16.371-.17.431-.248.91-.525l.745-.442c.81-.48.966-.774 2.163-.349 1.031.365 2.077 1.2 2.209 2.333.04.354-.016.959-.159 1.293-.163.382-.089.375-.23.588-.17.257-.084.075-.584.83-.2.302-.2.302.024.046.114-.131.287-.328.46-.55.183-.101.437-.262.596-.486.37-.518.273-1.768.575-1.816.417-.065 1.124.033 1.89.086.765.052 1.462.29 2.208.767.745.476 1.538 1.192 2.084 1.727.547.536.847.89 1.245 1.158.84.566.78.045 2.101 1.16.54.457 1.487 1.194 1.96 1.562.473.37.473.37.313.143-.16-.226-.48-.679-.947-1.091-.465-.413-1.075-.785-1.342-1.026-.266-.241-.189-.351-.052-.53.138-.179.335-.426.434-.54.142-.162 1.519-.07 1.872-.151.427-.099.729-.377.996-.614.267-.238.489-.58.6-.752.11-.172.11-.172.037-.088-.072.084-.217.252-.496.46-.278.208-.69.456-1.202.58-.51.124-1.132.194-1.652.077-.178-.04-.326-.095-.484-.126a12.763 12.763 0 01-1.116-.287c-.392-.119-.639-.255-.662-.59-.024-.334.175-.867.318-1.178.144-.31.231-.4.21-.485-.022-.085-.153-.166-.13-.386.023-.22.2-.578.162-.86-.037-.282-.288-.487-.428-.616s-.17-.182.086-.428c.257-.246.8-.684 1.088-.967.287-.282.32-.41.302-.64-.018-.231-.084-.566.277-1.1.362-.533 1.153-1.265 1.55-1.687.013-.012.093-.103.162-.181.066 0 .128-.001.284-.006.338-.01.892.11 1.246.12.389.012 2.73-.056 2.302-.101-.427-.045-1.515-.283-2.076-.271l-.798-.04-.013-.002H25.598l-.013-.002h-.006l-.007-.001-.013-.001h-.012l-.013-.002h-.013l-.012-.002h-.014l-.01-.002h-.013l-.004-.001h-.008l-.013-.001h-.006l-.006-.001-.012-.001h-.012l-.012-.002h-.011l-.012-.001-.012-.001h-.003l-.009-.001h-.011l-.005-.001h-.007l-.011-.001h-.012l-.011-.002h-.011l-.011-.001h-.013l-.01-.001-.01-.001h-.012l-.01-.001h-.011l-.011-.001h-.009l-.002-.001h-.01l-.011-.001h-.01l-.011-.001h-.01l-.01-.001h-.011l-.01-.001h-.007l-.023-.001h-.01l-.01-.001h-.011l-.01-.001H25.008l-.005-.001H24.973l-.009-.001h-.028l-.009-.001c.047-.068.086-.126.147-.194.165-.18.488-.43.997-.517.508-.086 1.202-.008 1.904.084s1.411.197 2.248.608c.838.412 1.803 1.13 2.411 2.022.609.891.86 1.955.94 2.837.08.881-.01 1.58-.309 2.38-.298.8-.807 1.7-1.378 2.289-.258.266-.528.469-.785.66.044-.081.084-.165.12-.25.222-.522.302-1.117.29-1.111-.012.005-.115.61-.388 1.059-.272.447-.715.737-1.218 1.095-.502.359-1.064.785-1.538 1.25-.475.463-.862.964-1.056 1.215-.194.25-.194.25-.003.071.19-.18.572-.538 1.098-.928.482-.358 1.087-.743 1.583-1.14a2.09 2.09 0 00-.017 1.509c.133.343.372.667.625.946-.07.091-.181.19-.364.303-.371.23-1.035.521-1.368.667-.332.145-.332.145.126.049.458-.097 1.373-.29 1.991-.346.108-.01.207-.015.297-.017l.06.052c.365.316.365.316-2.323 3.048-1.255 1.276-3.096 3.148-4.978 5.058.098-.428.23-.955.391-1.436.267-.802.611-1.477.828-1.879.217-.401.306-.529.3-.758-.007-.229-.109-.56-.255-.822-.147-.26-.338-.452-.434-.547-.095-.096-.095-.096-.063.184s.095.841.019 1.376c-.077.535-.293 1.045-.58 1.765-.286.72-.643 1.65-.898 2.217-.255.567-.408.77-.72.958a3.58 3.58 0 01-1.211.422c-.428.064-.813.022-1.226.017-.414-.005-2.362-.221-3.389-.363-1.027-.142-1.134-.21-1.062-.216.071-.005 1.825.3 2.688.81.863.512.834 1.229.82 1.587-.015.358-.015.358.017.04.032-.319.095-.956.263-1.274.167-.318.437-.318.763-.3.325.018.705.054 1.086.047.32-.005.64-.04.886-.025-1.53 1.551-2.97 3.008-4.014 4.058-2.708 2.721-2.748 2.7-3.094 2.68-.345-.02-.997-.04-1.376-1.203zM150.755 46.018c.379-1.164.486-3.473.583-4.673.096-1.2.181-1.291.455-1.706.274-.415.737-1.153 1.046-1.815.31-.662.464-1.248.53-2.147.064-.9.04-2.115-.087-3.131-.127-1.017-.035-2.345-.338-2.374-.245-.024-.171-.027-.434-.003-.26.025-.852.298-1.083.268-.23-.03-.566-.102-.6-.145-.033-.042.53-.19.608-.21.246-.063.972-.258 1.143-.395.124-.1.228-.204.358-.213.13-.009.23.158.313.245.082.087.81-.046.826-.028.38-.073.141-.086.825-.294a11.05 11.05 0 002.591-1.177c.914-.58 1.859-1.383 2.498-2.023.639-.64.973-1.116 1.387-1.536.413-.419.906-.781 1.334-1.227.429-.446.793-.976 1.09-1.386.297-.41.527-.699.641-.844.115-.144.115-.144-.001-.35l-.563-.987c-.213-.37-.404-.702-.671-1.16-.267-.458-.61-1.042-1.285-1.704-.675-.662-1.684-1.402-2.718-2.112-1.034-.71-2.093-1.39-2.783-1.856-.691-.466-1.014-.716-1.401-1.05-.388-.335-.84-.753-1.428-.941-.588-.189-1.313-.147-1.96-.13-.645.019-1.212.013-2 .068-.79.055-1.802.17-2.419.297-.617.127-.84.265-.772.866.07.6.43 1.664.708 2.418.277.755.469 1.202.677 1.388.207.187.43.114.599.256.169.142.283.498.426.638.144.14.316.062.465-.071.15-.133.275-.323.369-.564.094-.242.157-.536.249-.65.091-.112.211-.043.438-.077s.56-.171.829-.415c.268-.244.472-.594.732-.804.26-.21.575-.28.86-.238.286.043.541.198.868.55.327.35.724.897.923 1.17.199.273.199.273.245.713.046.44.137 1.319.375 2.09.238.771.672 1.52.814 1.766.111.192.305.311.485.46.45.374.895.772 1.401 1.065.078.078.628.422.057.16-.372-.17-.432-.247-.911-.525l-.745-.441c-.809-.48-.966-.774-2.163-.35-1.03.366-2.076 1.2-2.208 2.333-.041.355.015.96.158 1.294.164.382.09.375.23.588.17.257.084.075.585.83.2.301.2.301-.025.045-.114-.13-.286-.327-.46-.55-.182-.1-.436-.262-.595-.485-.37-.518-.273-1.769-.575-1.816-.417-.066-1.124.033-1.89.085-.765.053-1.463.29-2.208.767-.745.477-1.538 1.193-2.085 1.728-.546.535-.847.89-1.244 1.157-.84.566-.78.046-2.102 1.161a79.465 79.465 0 01-1.96 1.562c-.473.369-.473.369-.312.142.16-.226.48-.678.946-1.09.465-.413 1.076-.785 1.342-1.027.267-.24.19-.35.052-.53a14.447 14.447 0 00-.433-.539c-.142-.162-1.52-.07-1.873-.152-.427-.098-.729-.377-.996-.614s-.488-.58-.599-.752c-.11-.171-.11-.171-.038-.087.073.084.218.252.496.46.279.208.69.456 1.202.58.511.124 1.133.193 1.652.076.178-.04.326-.095.485-.125.254-.048.724-.168 1.116-.287.391-.12.638-.255.662-.59.024-.334-.176-.867-.319-1.178-.143-.311-.23-.4-.209-.485.022-.086.153-.167.13-.387-.023-.22-.2-.578-.163-.86.037-.281.288-.486.429-.615.14-.13.17-.183-.087-.429-.256-.246-.8-.684-1.087-.966-.288-.283-.32-.41-.302-.64.017-.232.084-.567-.278-1.1-.362-.534-1.152-1.266-1.55-1.687a22.037 22.037 0 01-.162-.182c-.066 0-.128 0-.283-.005-.339-.01-.892.109-1.246.12-.389.011-2.73-.057-2.303-.102.427-.045 1.515-.283 2.076-.27l.799-.041.013-.001h.002l.01-.001.013-.001h.006l.007-.001.013-.001.009-.001h.004l.012-.001.012-.001h.001l.012-.001.013-.001h.001l.011-.001.013-.001h.012l.012-.002h.012l.012-.002h.012l.012-.001.012-.001h.012l.011-.002H139.181l.01-.001h.006l.006-.001h.012l.007-.001h.004l.011-.001h.012l.01-.001.012-.001h.011l.011-.001h.004l.007-.001h.011l.006-.001h.015l.009-.001h.002l.011-.001h.01l.011-.001H139.392l.008-.001h.015l.006-.001h.01l.007-.001h.023l.01-.001h.011l.01-.001h.019l.01-.001H139.546l.002-.001h.028l.01-.001H139.606a1.587 1.587 0 00-.148-.194 1.727 1.727 0 00-.996-.517c-.509-.086-1.203-.008-1.904.084-.702.091-1.411.196-2.249.608-.837.412-1.803 1.13-2.41 2.021-.61.892-.86 1.956-.94 2.837-.081.882.009 1.58.308 2.38.299.8.807 1.7 1.378 2.29.258.266.529.469.785.66a3.027 3.027 0 01-.12-.251c-.222-.522-.301-1.116-.29-1.11.012.005.115.61.388 1.058.273.448.716.738 1.218 1.096.503.358 1.064.785 1.539 1.249.474.464.862.965 1.055 1.216.194.25.194.25.003.07-.19-.179-.571-.538-1.097-.928-.483-.358-1.087-.742-1.583-1.14a2.09 2.09 0 01.016 1.51c-.133.342-.372.667-.624.946.069.09.18.19.363.302.372.23 1.036.522 1.368.667.332.146.332.146-.125.05-.458-.097-1.373-.29-1.992-.346a4.719 4.719 0 00-.297-.018l-.06.053c-.364.315-.364.315 2.323 3.048 1.255 1.276 3.097 3.148 4.979 5.058-.098-.428-.231-.955-.391-1.436a11.964 11.964 0 00-.829-1.88c-.216-.4-.305-.528-.299-.757.006-.23.108-.56.255-.822.146-.261.337-.452.433-.548.096-.095.096-.095.064.185s-.096.84-.02 1.376c.077.535.294 1.045.58 1.765.287.72.644 1.65.899 2.216.254.567.407.771.72.958a3.58 3.58 0 001.21.422c.429.065.813.023 1.227.017.413-.005 2.361-.22 3.388-.363 1.027-.142 1.134-.21 1.063-.215-.072-.006-1.826.3-2.688.81-.863.511-.834 1.228-.82 1.586.015.359.015.359-.017.04-.032-.318-.096-.955-.263-1.273-.167-.319-.438-.318-.763-.3-.326.018-.706.053-1.087.047-.32-.006-.64-.041-.885-.025 1.53 1.55 2.97 3.008 4.014 4.057 2.707 2.722 2.747 2.7 3.093 2.68.346-.02.997-.039 1.377-1.202z"/><path d="M30.962 30.168c.394-.018.767.162 1.213.255.445.094.963.1 1.446.136.483.036.93.102 1.366.29.435.187.858.498 1.211.783.354.285.639.544.848.685.21.14.345.163.69.088.347-.075.902-.247 1.358-.302.455-.054.81.009 1.264.301.305.196 1.034.962 1.126 1.276.605 2.068.35 2.565.36 2.544.182-.404.12.243.106.349-.037.291-.037.291.01.186.048-.106.144-.317.194-.684.05-.367.056-.89.035-1.28-.03-.584-.292-.988-.092-1.483.172-.427.518-1.283.882-1.988.363-.705.687-1.282.882-1.697.337-.715.282-1.346.748-1.823.256-.262.222-.383.295-.519 0 0-.221.1-.317.212-.073.085-.174.189-.302.335-.351.4-.847.666-1.378.636-.311-.018-.828-.273-1.13-.288-.303-.016-.509.063-.643.007-.134-.057-.197-.248-.405-.529-.207-.28-.56-.649-.741-.96-.181-.313-.191-.568-.095-.803.097-.235.3-.451.51-.733.21-.281.428-.629.7-.787.271-.157.598-.126.91-.04.312.086.611.227 1.262.59.65.364 1.653.95 2.268 1.275.614.325.84.387.978 1.163.139.775.19 2.264.344 3.529.155 1.265.412 2.306.395 3.368-.018 1.062-.31 2.146-.445 2.865-.135.72-.113 1.075-.13 1.4-.017.325-.073.62-.405.868s-.94.45-1.604.509c-.665.06-1.386-.023-1.747-.064-.361-.042-.361-.042-.639.066-.278.108-.833.323-1.47.342-.635.019-1.351-.159-2.152-.37-.8-.21-1.686-.455-2.327-.748-.64-.293-1.037-.635-1.287-.82l-.027-.02c.109.011.254-.014.455-.12.418-.222 1.076-.8 1.02-.82-.054-.02-.822.521-1.333.468-.512-.054-.766-.701-.923-1.27-.156-.57-.215-1.06-.29-1.352-.077-.292-.17-.386-.112.084.059.469.27 1.501.223 2.117-.047.615-.35.814-.672.994-.323.18-.664.341-1.365.304-.701-.037-1.762-.273-2.41-.39-.647-.118-.88-.118-.998-.118-.116 0-.116 0 .616.174.733.175 2.198.524 2.936.78.737.255.747.416.526.705-.22.29-.67.707-1.49 1.024-.82.317-2.007.534-2.601.643-.594.108-.594.108-.255.129.339.021 1.016.063 1.592-.044.576-.107 1.05-.363 1.06-.192.009.17-.446.767-1.057 1.43-.611.661-1.378 1.388-1.761 1.751s-.383.363.283-.168c.665-.532 1.997-1.595 2.978-2.436.982-.84 1.612-1.46 2.08-2.05a8.5 8.5 0 00.923-1.454c.152-.304.152-.35.169-.367.014-.015.043-.005.122.048-.056.008-.1.053-.142.141-.098.206-.19.646-.851 1.463-.661.817-1.89 2.012-2.785 3.128-.894 1.116-1.453 2.155-1.785 2.772l-.49.908c-.051.098-.051.098-2.164.157-1.2.034-3.079.087-4.93.127.047-.173.097-.355.146-.514.114-.375.216-.617.267-.738.051-.121.051-.121.23-.109l.713.051c.179.013.179.013-.013-.057-.19-.07-.573-.21-.688-.548-.114-.337.038-.873.172-1.197.134-.325.249-.44.516-.466.268-.025.688.039.899.07.21.033.21.033-.039-.05l-.993-.332c-.249-.083-.249-.083-.201-.341.048-.26.143-.778.277-1.236.134-.459.306-.858.392-1.058.086-.2.086-.2.844.001.76.2 2.276.6 2.475.604.2.004-.92-.388-1.593-.768-.672-.38-.898-.746-1.027-.852-.129-.106-.161.05-.081-.338s.27-1.318.538-2.12c.069-.207.142-.404.218-.591a404.45 404.45 0 013.015-3.238c2.49-2.627 2.905-2.842 3.299-2.86zm-9.44 16.688c-1.384.03-2.747.052-3.79.055-2.457.005-3.144-.103-3.13-.317.015-.215.73-.535 3.37-3.216a181.95 181.95 0 003.104-3.261c.1.003.2.004.3.002.38-.006.762-.055 1.016-.01.254.046.382.186.372.48-.01.292-.155.738-.292 1.108-.137.37-.264.665-.49.83-.226.166-.552.203-.715.221-.162.019-.162.019.022.076l.74.23c.184.057.184.057.089.388l-.383 1.325c-.095.331-.095.331-.229.331h-.535c-.134 0-.134 0 .062.084.195.084.586.252.66.644.055.293-.067.713-.17 1.03zm-.126-7.082c.82-.88 1.665-1.794 2.486-2.681-.19.48-.381.955-.535 1.298-.255.567-.408.77-.72.958a3.58 3.58 0 01-1.211.422l-.02.003zM133.57 30.556c-.394-.017-.767.162-1.212.256-.446.093-.964.1-1.446.136-.483.036-.93.101-1.366.29-.435.187-.858.497-1.212.783-.353.284-.638.544-.848.684-.21.141-.345.164-.69.089-.346-.075-.902-.248-1.357-.302-.455-.055-.81.008-1.265.3-.305.197-1.034.963-1.125 1.276-.606 2.068-.351 2.566-.36 2.545-.182-.405-.12.242-.107.348.038.292.038.292-.01.186a2.291 2.291 0 01-.194-.683 7.67 7.67 0 01-.035-1.28c.03-.585.293-.988.093-1.483-.173-.428-.519-1.283-.882-1.988-.364-.705-.688-1.282-.883-1.697-.337-.715-.282-1.347-.748-1.823-.255-.262-.221-.384-.294-.52 0 0 .22.1.317.213.072.085.173.189.301.334.352.4.847.666 1.379.636.31-.018.828-.272 1.13-.288.303-.015.508.064.642.008.135-.057.198-.249.405-.53.208-.28.56-.648.742-.96.18-.312.19-.567.094-.802-.096-.236-.299-.451-.51-.733-.21-.282-.427-.63-.699-.787-.272-.158-.598-.126-.91-.04-.313.086-.611.226-1.262.59s-1.654.95-2.268 1.275c-.615.324-.84.387-.979 1.162-.138.776-.19 2.264-.344 3.53-.154 1.264-.412 2.305-.394 3.368.017 1.062.31 2.145.444 2.865.135.72.114 1.075.13 1.4.018.325.074.62.406.868.331.248.939.45 1.604.509.664.059 1.386-.024 1.747-.065.36-.041.36-.041.639.067.277.107.833.323 1.469.342.636.018 1.352-.16 2.153-.37.8-.211 1.685-.455 2.326-.748.64-.293 1.037-.635 1.287-.82l.028-.02c-.11.01-.255-.014-.455-.12-.419-.223-1.076-.801-1.021-.82.055-.02.823.52 1.334.467.511-.053.766-.7.922-1.27.157-.569.215-1.06.291-1.351.076-.292.17-.386.111.083-.058.47-.269 1.502-.222 2.117.046.616.35.815.672.995.322.18.663.34 1.364.304.702-.038 1.763-.273 2.41-.391.648-.118.881-.118.998-.118.117 0 .117 0-.616.175-.733.174-2.198.524-2.935.78-.738.255-.747.416-.527.705.22.289.671.706 1.49 1.023.82.318 2.008.535 2.602.643.594.109.594.109.255.13-.34.02-1.017.063-1.592-.045-.576-.107-1.05-.362-1.06-.192-.01.17.446.768 1.057 1.43.61.662 1.377 1.388 1.76 1.752.384.363.384.363-.282-.169a121.854 121.854 0 01-2.979-2.435c-.981-.841-1.612-1.46-2.08-2.05a8.502 8.502 0 01-.922-1.455c-.152-.303-.152-.35-.169-.367-.015-.014-.043-.005-.122.048.055.008.099.053.141.142.098.206.191.646.852 1.463.66.817 1.89 2.011 2.784 3.128.895 1.116 1.454 2.155 1.786 2.772l.489.908c.052.097.052.097 2.165.157 1.199.033 3.078.086 4.929.127a15.26 15.26 0 00-.145-.514c-.115-.376-.217-.618-.268-.739-.05-.12-.05-.12-.23-.108l-.713.05c-.178.014-.178.014.013-.056s.573-.21.688-.548c.115-.338-.038-.873-.172-1.198-.134-.325-.248-.44-.516-.465-.267-.025-.688.038-.898.07-.21.032-.21.032.038-.05l.994-.332c.248-.083.248-.083.2-.342-.047-.259-.143-.777-.277-1.236-.133-.458-.305-.857-.391-1.057-.086-.2-.086-.2-.845 0s-2.276.601-2.475.605c-.199.004.92-.389 1.593-.768.673-.38.899-.747 1.028-.853.128-.105.16.05.08-.338-.079-.387-.27-1.317-.537-2.12a10.275 10.275 0 00-.218-.59 404.633 404.633 0 00-3.016-3.238c-2.489-2.628-2.904-2.842-3.298-2.86zm9.44 16.688c1.385.03 2.747.053 3.79.055 2.457.006 3.144-.102 3.13-.317-.014-.214-.73-.535-3.37-3.216-.872-.886-1.955-2.03-3.104-3.26-.099.002-.2.004-.3.002-.38-.007-.761-.056-1.016-.01-.254.046-.381.186-.372.479.01.293.156.739.292 1.109.137.37.264.664.49.83.227.165.552.202.715.22.163.02.163.02-.022.077l-.739.23c-.185.057-.185.057-.089.388l.382 1.325c.096.33.096.33.23.33h.535c.133 0 .133 0-.062.085-.195.084-.586.251-.66.643-.055.294.067.713.17 1.03zm.126-7.082c-.82-.88-1.665-1.793-2.486-2.68.19.48.382.955.536 1.297.254.567.407.771.72.958a3.58 3.58 0 001.21.422l.02.003z"/></g></svg>
